<?xml version="1.0" encoding="UTF-8"?>
<svg id="Capa_2" data-name="Capa 2" xmlns="http://www.w3.org/2000/svg" viewBox="0 0 561.12 252.86">
  <g id="Capa_1-2" data-name="Capa 1">
    <g>
      <g>
        <path d="m297.24,36.45c0,9.45-2.79,17.55-8.1,23.4-2.88,3.24-6.48,5.76-10.71,7.38-4.32,1.71-9.18,2.61-14.58,2.61h-15.84V3.06h15.84c5.4,0,10.26.81,14.58,2.61,4.23,1.62,7.83,4.14,10.71,7.38,5.31,5.85,8.1,13.95,8.1,23.4Zm-10.44,0c0-6.84-1.89-12.51-5.4-16.38-3.96-4.41-9.81-6.57-17.55-6.57h-5.4v45.9h5.4c7.74,0,13.59-2.25,17.55-6.57,3.51-3.87,5.4-9.63,5.4-16.38Z"/>
        <path d="m308.76,69.84V3.06h10.44v66.78h-10.44Z"/>
        <path d="m385.35,69.84v-35.46l-20.88,31.14-20.97-31.14v35.46h-10.44V0l31.41,46.8L395.88,0v69.84h-10.53Z"/>
        <path d="m446.01,55.53h-23.76l-5.67,14.31h-11.52L434.13,0l28.98,69.84h-11.43l-5.67-14.31Zm-3.78-9.36l-8.1-20.34-8.1,20.34h16.2Z"/>
        <path d="m510,69.84h-38.34V3.06h10.44v57.33h27.9v9.45Z"/>
        <path d="m537.72,34.92v34.92h-10.44v-34.92l-23.49-31.86h12.15l16.56,22.86,16.56-22.86h12.06l-23.4,31.86Z"/>
        <path d="m300.3,160.81v-35.46l-20.88,31.14-20.97-31.14v35.46h-10.44v-69.84l31.41,46.8,31.41-46.8v69.84h-10.53Z"/>
        <path d="m335.22,121.21h24.39v9.45h-24.39v20.7h29.61v9.45h-40.05v-66.78h40.05v9.36h-29.61v17.82Z"/>
        <path d="m426.39,127.42c0,9.45-2.79,17.55-8.1,23.4-2.88,3.24-6.48,5.76-10.71,7.38-4.32,1.71-9.18,2.61-14.58,2.61h-15.84v-66.78h15.84c5.4,0,10.26.81,14.58,2.61,4.23,1.62,7.83,4.14,10.71,7.38,5.31,5.85,8.1,13.95,8.1,23.4Zm-10.44,0c0-6.84-1.89-12.51-5.4-16.38-3.96-4.41-9.81-6.57-17.55-6.57h-5.4v45.9h5.4c7.74,0,13.59-2.25,17.55-6.57,3.51-3.87,5.4-9.63,5.4-16.38Z"/>
        <path d="m437.91,160.81v-66.78h10.44v66.78h-10.44Z"/>
        <path d="m498.39,146.5h-23.76l-5.67,14.31h-11.52l29.07-69.84,28.98,69.84h-11.43l-5.67-14.31Zm-3.78-9.36l-8.1-20.34-8.1,20.34h16.2Z"/>
        <path d="m299.58,226.58v18.09l-2.34,1.62q-.09,0-.18.09c-.09.09-.27.18-.36.18-.09.09-.18.18-.27.18-.09.09-.18.18-.36.18-.09.09-.18.18-.36.27-.09.09-.18.09-.27.18-.09.09-.18.09-.27.18-.18.09-.27.09-.45.18-.09.09-.18.09-.27.18s-.27.18-.45.18q-.09.09-.18.18h-.18c-.09.09-.27.18-.45.27-.18.09-.45.18-.63.27l-.09.09c-3.78,1.71-7.74,2.61-11.97,2.88h-1.71c-3.6,0-7.2-.54-10.53-1.71h-.09c-.36-.09-.63-.27-.99-.36-.45-.18-.9-.36-1.35-.54-1.17-.45-2.25-.99-3.24-1.62-2.7-1.44-5.22-3.33-7.38-5.58-3.06-3.06-5.49-6.57-7.2-10.62-1.26-3.06-2.16-6.3-2.43-9.63-.09-1.08-.18-2.25-.18-3.33v-1.71c.27-3.87,1.08-7.74,2.61-11.34,1.71-3.96,4.14-7.56,7.2-10.62,3.06-3.06,6.57-5.49,10.62-7.11,4.05-1.8,8.46-2.61,12.96-2.61h1.71c.27,0,.54,0,.81.09,3.87.27,7.65,1.17,11.25,2.79,0,0,0,.09.09.09.18.09.36.18.54.27h.09v12.33c-1.35-1.17-2.88-2.07-4.5-2.88-1.35-.63-2.79-1.17-4.14-1.53-.09,0-.18,0-.27-.09h-.27c-.09-.09-.18-.09-.36-.09,0,0-.09,0-.18-.09-.36-.09-.81-.09-1.17-.18h-.18c-.09,0-.27-.09-.36-.09h-.18c-.09,0-.27,0-.36-.09h-.81c-.09,0-.18-.09-.27-.09h-1.44c-4.23,0-8.28,1.08-11.79,3.24-.09.09-.27.18-.45.27-1.44.9-2.79,1.98-3.96,3.24-.36.36-.81.72-1.17,1.17,0,0,0,.09-.09.09-.45.54-.81,1.08-1.17,1.62-.09.09-.18.18-.18.18-.18.27-.36.54-.54.81-.09.09-.18.27-.18.36-1.35,2.16-2.25,4.41-2.79,6.84q-.09.09-.09.18c-.18.9-.36,1.8-.45,2.7v.99c-.09.45-.09.81-.09,1.26,0,.36,0,.72.09,1.17.09,1.71.36,3.42.81,5.04,1.08,3.78,3.06,7.2,5.85,9.99,4.32,4.32,10.08,6.75,16.2,6.75h.63c.09,0,.18,0,.27-.09h1.35c0-.09.09-.09.18-.09h.54c.63-.09,1.35-.27,1.98-.36q.09,0,.18-.09c.09,0,.27,0,.36-.09h.27c.09-.09.18-.09.27-.09.09-.09.27-.09.36-.09s.18-.09.18-.09c1.26-.36,2.52-.81,3.69-1.44h.09v-12.33h-12.6v-9.45h23.04v9.45Z"/>
        <path d="m357.27,251.78h-11.79l-16.83-22.59h-7.65v22.59h-10.44v-66.78h19.8c8.82,0,13.95,3.6,16.65,6.66,3.51,3.87,5.4,9.27,5.4,15.48s-1.89,11.52-5.4,15.39c-1.62,1.8-4.14,3.87-7.74,5.13l18,24.12Zm-26.91-31.95c4.32,0,7.56-1.26,9.63-3.6,2.52-2.7,2.97-6.48,2.97-9.09s-.45-6.48-2.97-9.18c-2.07-2.34-5.31-3.51-9.63-3.51h-9.36v25.38h9.36Z"/>
        <path d="m382.29,249.17c-4.05-1.71-7.56-4.14-10.62-7.2-3.06-3.06-5.49-6.57-7.2-10.62-1.71-4.05-2.61-8.46-2.61-12.96s.9-8.91,2.61-13.05c1.71-3.96,4.14-7.47,7.2-10.62,3.06-3.06,6.57-5.4,10.62-7.11s8.46-2.61,12.96-2.61,8.91.9,13.05,2.61c3.96,1.71,7.47,4.05,10.62,7.11,3.06,3.15,5.4,6.66,7.11,10.62,1.71,4.14,2.61,8.55,2.61,13.05s-.9,8.91-2.61,12.96c-1.71,4.05-4.05,7.56-7.11,10.62-3.15,3.06-6.66,5.49-10.62,7.2-4.14,1.71-8.55,2.61-13.05,2.61s-8.91-.9-12.96-2.61Zm-3.24-46.98c-4.32,4.32-6.75,10.08-6.75,16.2s2.43,11.88,6.75,16.2c4.32,4.32,10.08,6.75,16.2,6.75s11.88-2.43,16.2-6.75,6.75-10.08,6.75-16.2-2.43-11.88-6.75-16.2-10.08-6.75-16.2-6.75-11.88,2.43-16.2,6.75Z"/>
        <path d="m447.36,246.47c-2.61-1.98-4.59-4.41-5.94-7.2-1.53-3.06-2.25-6.48-2.25-10.17v-44.1h10.44v44.1c0,3.96,1.44,7.02,4.14,9.09,2.52,1.98,6.21,3.15,10.17,3.15s7.56-1.17,10.17-3.15c2.7-2.07,4.05-5.13,4.05-9.09v-44.1h10.53v44.1c0,3.69-.81,7.11-2.25,10.17-1.44,2.79-3.42,5.22-5.94,7.2-4.41,3.42-10.26,5.31-16.56,5.31s-12.15-1.89-16.56-5.31Z"/>
        <path d="m510.81,185h10.98c8.82,0,13.95,3.6,16.65,6.57,3.6,3.96,5.4,9.27,5.4,15.48s-1.8,11.61-5.4,15.48c-2.7,3.06-7.83,6.66-16.65,6.66h-9.36v22.59h-10.44v-66.78h8.82Zm23.67,22.05c0-2.61-.54-6.39-2.97-9.09-2.16-2.34-5.4-3.6-9.72-3.6h-9.36v25.38h9.36c4.32,0,7.56-1.17,9.72-3.51,2.43-2.7,2.97-6.48,2.97-9.18Z"/>
      </g>
      <path d="m82.65.92H0v251.94h228V.92H82.65Zm133.95,11.4v96.76c-4-9.12-9.62-17.37-16.5-24.39h.01s-59.28-59.29-59.28-59.29h-.01c-4.95-5.03-10.55-9.44-16.66-13.07h92.44ZM60.42,206.04l-42.1-42.1h42.1v42.1Zm92.34-123.61c0,38.66-31.45,70.11-70.11,70.11h-10.83v-80.94h70.11c3.43,0,6.8.26,10.09.74.48,3.3.74,6.67.74,10.09Zm-92.34,70.11H12.54V20.38l47.88,47.88v84.28Zm11.4,11.4h10.83c20.42,0,39.1-7.57,53.42-20.03l51.2,51.2c-12.24,10.4-28.07,16.7-45.35,16.7h-70.11v-47.88Zm123.52,23.12l-51.2-51.2c12.46-14.32,20.03-33,20.03-53.42,0-2.47-.13-4.9-.34-7.31,10.49,3.46,19.9,9.31,27.55,16.93l.22.22c12.63,12.69,20.45,30.17,20.45,49.44,0,17.28-6.3,33.11-16.7,45.35Zm-33.62-124.42c-.03-.1-.05-.21-.07-.31l.39.39c-.1-.03-.21-.05-.31-.07Zm-12.48-2.1c-2.41-.22-4.85-.34-7.31-.34h-73.45L20.6,12.32h62.05c31.02,0,57.38,20.25,66.59,48.22ZM11.4,241.46v-68.32l49.02,49.02v1.06h81.51c33.34,0,62.06-20.13,74.67-48.88v67.12H11.4Z"/>
    </g>
  </g>
</svg>