<?xml version="1.0" encoding="utf-8"?>
<svg version="1.1" id="Capa_1" xmlns="http://www.w3.org/2000/svg" xmlns:xlink="http://www.w3.org/1999/xlink" x="0px" y="0px"
	 viewBox="0 0 24 24" style="enable-background:new 0 0 24 24;" xml:space="preserve">
<style type="text/css">
	.st0{fill:#FFFFFF;}
</style>
<path class="st0" d="M12,23.6c-7.8,0-12-4.9-12-11.2C0,5.8,4.8,0.4,13.3,0.4c6.2,0,10.7,4,10.7,9.6c0,8.7-10.3,11-9.8,6
	c-0.7,1.1-1.9,2.4-4.1,2.4c-2.5,0-4.1-1.8-4.1-4.8c0-4.4,2.9-8.2,6.4-8.2c1.7,0,2.8,0.9,3.3,2.2l0.5-1.6h2.3
	c-0.2,0.8-2.3,8.5-2.3,8.5c-0.6,2.7,1.4,2.7,3.1,1.3c3.3-2.6,3.5-9.3-1-12.1C13.5,0.7,2.5,2.5,2.5,12.3c0,5.6,3.9,9.4,9.8,9.4
	c3.4,0,5.5-0.9,7.3-1.9l1.2,1.7C19.1,22.4,16.4,23.6,12,23.6z M9.7,9.3c-0.7,1.3-1.2,3.1-1.2,4.4c0,3.6,3.5,3.6,5.3,0.2
	c0.7-1.4,1.2-3.2,1.2-4.5C14.9,6.6,11.4,6,9.7,9.3z"/>
</svg>
