<?xml version="1.0" encoding="utf-8"?>
<svg version="1.1" id="Capa_1" xmlns="http://www.w3.org/2000/svg" xmlns:xlink="http://www.w3.org/1999/xlink" x="0px" y="0px"
	 viewBox="0 0 48 48" style="enable-background:new 0 0 48 48;" xml:space="preserve">
<style type="text/css">
	.st0{fill:#FFFFFF;}
</style>
<g id="_02-HTML">
	<path class="st0" d="M45,40H3c-1.7,0-3-1.3-3-3V11c0-1.7,1.3-3,3-3h3v2H3c-0.6,0-1,0.4-1,1v26c0,0.6,0.4,1,1,1h42c0.6,0,1-0.4,1-1
		V11c0-0.6-0.4-1-1-1h-3V8h3c1.7,0,3,1.3,3,3v26C48,38.7,46.7,40,45,40z"/>
	<rect x="15" y="39" class="st0" width="2" height="4"/>
	<path class="st0" d="M13,47h-2v-2c0-1.7,1.3-3,3-3h10v2H14c-0.6,0-1,0.4-1,1V47z"/>
	<rect x="31" y="39" class="st0" width="2" height="4"/>
	<path class="st0" d="M37,47h-2v-2c0-0.6-0.4-1-1-1h-5v-2h5c1.7,0,3,1.3,3,3V47z"/>
	<rect x="9" y="46" class="st0" width="30" height="2"/>
	<path class="st0" d="M40,36H8c-1.7,0-3-1.3-3-3V3c0-1.7,1.3-3,3-3h32c1.7,0,3,1.3,3,3v30C43,34.7,41.7,36,40,36z M8,2
		C7.4,2,7,2.4,7,3v30c0,0.6,0.4,1,1,1h32c0.6,0,1-0.4,1-1V3c0-0.6-0.4-1-1-1H8z"/>
	<rect x="6" y="6" class="st0" width="36" height="2"/>
	<rect x="9" y="3" class="st0" width="2" height="2"/>
	<rect x="13" y="3" class="st0" width="2" height="2"/>
	<rect x="17" y="3" class="st0" width="2" height="2"/>
	<rect x="1" y="30" class="st0" width="5" height="2"/>
	<rect x="42" y="30" class="st0" width="5" height="2"/>
	<rect x="10" y="17" class="st0" width="2" height="8"/>
	<rect x="14" y="17" class="st0" width="2" height="8"/>
	<rect x="11" y="20" class="st0" width="4" height="2"/>
	<rect x="17" y="17" class="st0" width="6" height="2"/>
	<rect x="19" y="18" class="st0" width="2" height="7"/>
	<path class="st0" d="M32,25h-2v-2.8l-1.1,2.2c-0.3,0.5-0.9,0.7-1.4,0.4c-0.1-0.1-0.3-0.2-0.4-0.4L26,22.2V25h-2v-7c0-0.6,0.4-1,1-1
		c0.4,0,0.7,0.2,0.9,0.6l2.1,4.2l2.1-4.2c0.2-0.5,0.8-0.7,1.3-0.4c0.3,0.2,0.6,0.5,0.6,0.9V25z"/>
	<path class="st0" d="M39,25h-5c-0.6,0-1-0.4-1-1v-7h2v6h4V25z"/>
	<rect x="9" y="10" class="st0" width="2" height="2"/>
	<rect x="37" y="10" class="st0" width="2" height="2"/>
	<rect x="37" y="30" class="st0" width="2" height="2"/>
	<rect x="9" y="30" class="st0" width="2" height="2"/>
</g>
</svg>
