<?xml version="1.0" encoding="utf-8"?>
<svg version="1.1" id="Layer_1" xmlns="http://www.w3.org/2000/svg" xmlns:xlink="http://www.w3.org/1999/xlink" x="0px" y="0px"
	 viewBox="0 0 100 100" style="enable-background:new 0 0 100 100;" xml:space="preserve">
<style type="text/css">
	.st0{fill:#FFFFFF;}
</style>
<polygon class="st0" points="29.2,38.3 37.5,33.3 29.2,28.3 "/>
<path class="st0" d="M90,70V50h-6.7v-6.7c0-3.7-3-6.7-6.7-6.7H53.3V23.3c0-3.7-3-6.7-6.7-6.7h-30c-3.7,0-6.7,3-6.7,6.7v20
	c0,3.7,3,6.7,6.7,6.7v30H10v3.3c0,3.7,3,6.7,6.7,6.7l66.7,0c3.7,0,6.7-3,6.7-6.7V80h-6.7V70H90z M16.7,23.3h30v20h-30V23.3z
	 M76.7,80H63.3L60,83.3H40L36.7,80H23.3V50h23.3c3.7,0,6.7-3,6.7-6.7h23.3V50h-20v26.7l6.7-6.7h13.3V80z M63.3,63.3v-6.7h20v6.7
	H63.3z"/>
<path class="st0" d="M83.3,15v-5h-5.8c-3.7,0-6.7,3-6.7,6.7V20h-4.2v5h4.2v8.3h5V25H80v-5h-4.2v-5C75.8,15,83.3,15,83.3,15z"/>
<path class="st0" d="M42.5,71.7V65h4.2v-5h-4.2v-6.7h-5V60h-4.2v5h4.2v5c0,3.7,3,6.7,6.7,6.7H50v-5H42.5z"/>
</svg>
