<?xml version="1.0" encoding="utf-8"?>
<svg version="1.1" id="Capa_1" xmlns="http://www.w3.org/2000/svg" xmlns:xlink="http://www.w3.org/1999/xlink" x="0px" y="0px"
	 viewBox="0 0 24 24" style="enable-background:new 0 0 24 24;" xml:space="preserve">
<style type="text/css">
	.st0{fill:#FFFFFF;}
</style>
<path class="st0" d="M12,2c5.5,0,10,4.5,10,10s-4.5,10-10,10S2,17.5,2,12S6.5,2,12,2z M12,0C5.4,0,0,5.4,0,12s5.4,12,12,12
	s12-5.4,12-12S18.6,0,12,0z M16.5,17.3l-1.8-3.4l-1,0.5c-1.1,0.5-3.4-3.9-2.3-4.5l1-0.5L10.7,6L9.6,6.5c-3.6,1.9,2.1,13,5.8,11.3
	C15.4,17.8,16.5,17.3,16.5,17.3z"/>
</svg>
