<?xml version="1.0" encoding="utf-8"?>
<svg version="1.1" id="Capa_1" xmlns="http://www.w3.org/2000/svg" xmlns:xlink="http://www.w3.org/1999/xlink" x="0px" y="0px"
	 viewBox="0 0 24 24" style="enable-background:new 0 0 24 24;" xml:space="preserve">
<style type="text/css">
	.st0{fill-rule:evenodd;clip-rule:evenodd;fill:#FFFFFF;}
</style>
<path class="st0" d="M13,24h-2v-3.6c0.3,0,0.7,0.1,1,0.1c0.3,0,0.7,0,1-0.1V24z M17.1,18.8l1.8,3.1l-1.7,1l-1.8-3.1
	C16,19.6,16.5,19.2,17.1,18.8z M6.9,18.8c0.5,0.4,1.1,0.7,1.7,1l-1.8,3.1l-1.7-1C5.1,21.9,6.9,18.8,6.9,18.8z M12.3,19h-0.6
	c-0.2,0-0.3-0.1-0.4-0.1l-0.8-0.5h3l-0.8,0.5C12.6,18.9,12.5,19,12.3,19z M19.8,15.4l3.1,1.8l-1,1.7l-3.1-1.8
	C19.2,16.6,19.5,16,19.8,15.4z M4.2,15.3c0.3,0.6,0.6,1.2,1,1.7l-3.1,1.8l-1-1.7L4.2,15.3z M13.5,17.7h-3c-0.2,0-0.3-0.1-0.3-0.3
	c0-0.2,0.1-0.3,0.3-0.3h3c0.2,0,0.3,0.1,0.3,0.3C13.9,17.5,13.7,17.7,13.5,17.7z M13.9,16.3h-3.7c0-2.6-2.1-3.8-2.1-6.2
	c0-2.5,2-3.8,4-3.8c2,0,4,1.4,4,3.8C16,12.6,13.9,13.7,13.9,16.3z M20.4,11l3.6,0l0,2l-3.6,0c0-0.3,0.1-0.7,0.1-1
	C20.5,11.7,20.5,11.3,20.4,11z M3.6,11c0,0.3-0.1,0.7-0.1,1c0,0.3,0,0.7,0.1,1L0,13l0-2L3.6,11z M18.8,6.9l3.1-1.8l1,1.7l-3.1,1.8
	C19.5,8,19.2,7.5,18.8,6.9z M5.2,6.9C4.8,7.4,4.5,8,4.2,8.6L1.1,6.8l1-1.7C2.1,5.1,5.2,6.9,5.2,6.9z M15.4,4.2l1.8-3.1l1.7,1
	l-1.8,3.1C16.6,4.8,16,4.5,15.4,4.2z M8.7,4.2C8,4.4,7.5,4.8,6.9,5.2L5.2,2.1l1.7-1C6.9,1.1,8.7,4.2,8.7,4.2z M13,3.6
	c-0.3,0-0.7-0.1-1-0.1c-0.3,0-0.7,0-1,0.1V0h2V3.6z"/>
</svg>
