<?xml version="1.0" encoding="utf-8"?>
<svg version="1.1" id="Capa_1" xmlns="http://www.w3.org/2000/svg" xmlns:xlink="http://www.w3.org/1999/xlink" x="0px" y="0px"
	 viewBox="0 0 24 24" style="enable-background:new 0 0 24 24;" xml:space="preserve">
<style type="text/css">
	.st0{fill:#FFFFFF;}
</style>
<path class="st0" d="M12,19c4.5-3.9,8-6.9,8-11.2C20,3.5,16.4,0,12,0S4,3.5,4,7.8C4,12.1,7.5,15.1,12,19z M6.2,9H9V7H6.2
	C6.6,4.6,8.5,2.6,11,2.2V5h2V2.2c2.5,0.4,4.4,2.4,4.8,4.8H15v2h2.8c-0.5,2.4-2.4,4.2-4.8,4.6V11h-2v2.6C8.6,13.2,6.7,11.4,6.2,9z
	 M20,16h-1.8c-0.6,0.7-1.3,1.3-2,2h2.6l0.5,1H15l-1.1,1h1l0.9,2H8.3l0.9-2h0.9c-0.4-0.3-0.8-0.7-1.1-1H7l-1-1h1.9
	c-0.7-0.7-1.4-1.3-2-2H4l-4,8h24C24,24,20,16,20,16z M7.2,22h-4L5,18.5L6.5,20h1.5L7.2,22z M16,20h3.8l1,2h-3.9L16,20z"/>
</svg>
