<?xml version="1.0" encoding="UTF-8"?>
<svg id="Capa_2" data-name="Capa 2" xmlns="http://www.w3.org/2000/svg" viewBox="0 0 413.7 457.14">
  <g id="Capa_1-2" data-name="Capa 1">
    <path d="m149.97,0H0v457.14h413.7V0H149.97Zm243.05,20.69v175.56c-7.26-16.55-17.46-31.52-29.95-44.26l.03-.03-107.56-107.56-.03.03c-8.98-9.16-19.13-17.15-30.22-23.74h167.73ZM109.63,372.18l-76.39-76.39h76.39v76.39Zm167.55-224.29c0,70.15-57.07,127.21-127.21,127.21h-19.65v-146.86h127.21c6.22,0,12.33.47,18.31,1.34.87,5.98,1.34,12.09,1.34,18.31Zm-167.55,127.21H22.75V35.31l86.88,86.88v152.92Zm20.69,20.69h19.65c37.06,0,70.95-13.73,96.93-36.34l92.91,92.91c-22.2,18.88-50.92,30.31-82.28,30.31h-127.21v-86.88Zm224.12,41.95l-92.91-92.91c22.6-25.98,36.34-59.87,36.34-96.93,0-4.48-.23-8.89-.63-13.27,19.03,6.27,36.1,16.89,49.99,30.72l.4.4c22.92,23.02,37.1,54.73,37.1,89.7,0,31.36-11.43,60.08-30.31,82.28Zm-61-225.75c-.05-.19-.08-.38-.13-.57l.7.7c-.19-.05-.38-.08-.57-.13Zm-22.64-3.8c-4.38-.39-8.79-.63-13.27-.63H124.26L37.38,20.69h112.59c56.28,0,104.11,36.75,120.83,87.5ZM20.69,436.45v-123.96l88.95,88.95v1.92h147.9c60.5,0,112.61-36.53,135.49-88.68v121.78H20.69Z"/>
  </g>
</svg>